<?xml version="1.0" standalone="no"?>
<!DOCTYPE svg PUBLIC "-//W3C//DTD SVG 20010904//EN"
 "http://www.w3.org/TR/2001/REC-SVG-20010904/DTD/svg10.dtd">
<svg version="1.0" xmlns="http://www.w3.org/2000/svg"
 width="16.000000pt" height="16.000000pt" viewBox="0 0 16.000000 16.000000"
 preserveAspectRatio="xMidYMid meet">
<metadata>
Created by potrace 1.11, written by Peter Selinger 2001-2013
</metadata>
<g transform="translate(0.000000,16.000000) scale(0.003077,-0.003077)"
fill="#000000" stroke="none">
<path d="M981 4912 c-24 -42 -68 -121 -98 -174 -30 -54 -59 -98 -64 -98 -5 0
-9 26 -9 58 l0 57 -305 -3 -305 -3 0 -129 0 -130 65 0 65 0 0 -285 0 -284 -57
-3 -58 -3 0 -130 0 -130 63 -3 c57 -3 62 -5 62 -26 0 -27 42 -112 73 -147 81
-90 219 -165 381 -205 198 -50 597 -51 802 -4 247 57 394 164 451 328 l18 52
67 0 68 0 0 135 0 134 -62 3 -63 3 0 280 0 280 63 3 62 3 0 129 0 129 -305 3
-305 3 0 -52 c0 -29 -4 -53 -9 -53 -5 0 -33 44 -62 98 -29 53 -67 120 -83 147
-17 28 -36 59 -42 70 -10 19 -24 20 -190 22 l-179 3 -44 -78z m253 -385 c44
-75 96 -173 96 -179 0 -5 -57 -8 -126 -8 -122 0 -126 1 -121 20 9 33 110 200
122 200 5 0 18 -15 29 -33z m-509 -47 c8 -13 -34 -92 -45 -85 -11 7 -14 78 -3
88 10 10 41 8 48 -3z m1013 -37 c4 -55 -21 -59 -43 -7 -17 42 -12 56 18 52 18
-2 23 -11 25 -45z m-199 -442 c22 -38 41 -72 41 -75 0 -3 -40 -6 -90 -6 l-90
0 0 -135 0 -135 131 0 c110 0 130 -2 120 -14 -19 -22 -123 -64 -202 -82 -106
-22 -397 -22 -499 1 -73 17 -182 64 -195 85 -4 7 38 10 124 10 l130 0 3 135 3
135 -77 0 c-42 0 -79 4 -83 10 -5 8 6 29 61 118 14 22 15 22 298 22 l284 0 41
-69z"/>
<path d="M2505 3501 c-116 -19 -266 -77 -349 -134 -56 -39 -147 -131 -188
-190 -55 -81 -93 -165 -125 -282 -25 -93 -27 -113 -27 -285 1 -167 3 -195 27
-285 54 -200 116 -316 231 -430 94 -92 181 -141 316 -177 113 -30 359 -32 460
-5 223 60 397 216 488 437 17 41 32 89 34 105 l3 30 -110 27 c-60 15 -112 24
-116 20 -3 -4 -15 -37 -27 -73 -48 -145 -131 -244 -254 -303 -95 -45 -177 -60
-286 -53 -258 17 -443 177 -507 437 -26 102 -31 354 -11 464 47 245 164 395
361 463 72 25 93 28 210 27 119 0 136 -2 198 -28 110 -46 203 -142 251 -260
13 -31 26 -59 29 -62 3 -3 55 7 117 21 129 31 126 23 65 152 -85 183 -223 301
-420 363 -78 24 -280 35 -370 21z"/>
<path d="M3390 1030 l0 -830 110 0 110 0 1 698 c1 593 3 691 14 657 8 -22 84
-247 170 -500 86 -253 186 -549 223 -658 l67 -198 94 3 94 3 54 150 c30 83 83
231 118 330 35 99 103 288 150 420 47 132 105 293 128 359 l42 118 3 -691 2
-691 110 0 110 0 0 830 0 830 -145 0 c-80 0 -145 -2 -145 -3 0 -2 -25 -73 -56
-158 -30 -85 -71 -197 -89 -249 -18 -52 -70 -196 -115 -320 -68 -189 -161
-450 -227 -638 -8 -24 -17 -41 -19 -39 -3 3 -116 332 -324 947 -39 113 -89
261 -113 330 l-42 125 -163 3 -162 2 0 -830z"/>
</g>
</svg>
