<?xml version="1.0" encoding="iso-8859-1"?>
<!-- Generator: Adobe Illustrator 17.0.0, SVG Export Plug-In . SVG Version: 6.00 Build 0)  -->
<!DOCTYPE svg PUBLIC "-//W3C//DTD SVG 1.1//EN" "http://www.w3.org/Graphics/SVG/1.1/DTD/svg11.dtd">
<svg version="1.1" id="Capa_1" xmlns="http://www.w3.org/2000/svg" xmlns:xlink="http://www.w3.org/1999/xlink" x="0px" y="0px"
	 width="64px" height="64px" viewBox="0 0 64 64" style="enable-background:new 0 0 64 64;" xml:space="preserve">
<path d="M11.424,48.989l14.309-14.309c1.365-1.365,1.757-3.314,1.222-5.038l4.43-4.43c1.324,1.078,2.697,1.94,4.047,2.569
	c0.103-0.307,0.262-0.589,0.494-0.821l7.419-7.419c0.23-0.23,0.514-0.386,0.825-0.485c-0.908-1.952-2.3-3.958-4.128-5.786
	c-1.864-1.864-3.913-3.279-5.902-4.185c-0.104,0.288-0.254,0.555-0.474,0.776l-7.419,7.419c-0.219,0.219-0.48,0.379-0.771,0.486
	c0.633,1.386,1.517,2.799,2.625,4.161l-4.43,4.43c-1.724-0.535-3.673-0.143-5.038,1.222L4.322,41.888
	c-1.961,1.961-1.961,5.14,0,7.101C6.283,50.95,9.463,50.95,11.424,48.989z"/>
<path d="M36.632,27.668c-0.138,0.138-0.226,0.313-0.28,0.507c-0.184,0.666,0.112,1.587,0.809,2.284
	c0.546,0.545,1.246,0.871,1.874,0.871c0.263,0,0.635-0.059,0.917-0.341l2.294-2.294l2.831-2.831l2.294-2.294
	c0.281-0.281,0.395-0.711,0.319-1.21c-0.084-0.556-0.386-1.117-0.849-1.58c-0.546-0.545-1.246-0.871-1.873-0.871
	c-0.121,0-0.266,0.016-0.414,0.057c-0.174,0.048-0.352,0.132-0.504,0.285L36.632,27.668z"/>
<path d="M24.62,16.916c0.136,0,0.302-0.018,0.47-0.073c0.155-0.051,0.312-0.133,0.448-0.269l7.419-7.419
	c0.124-0.124,0.204-0.281,0.26-0.451c0.218-0.669-0.072-1.622-0.79-2.339c-0.546-0.545-1.246-0.871-1.873-0.871
	c-0.263,0-0.635,0.059-0.917,0.341l-2.528,2.528l-2.364,2.363l-2.528,2.528c-0.612,0.613-0.37,1.891,0.53,2.791
	C23.293,16.59,23.993,16.916,24.62,16.916z"/>
<path d="M39.812,49.343c1.217-0.12,2.522-0.154,3.885-0.154c0.581,0,1.176,0.004,1.782,0.009c1.256,0.01,2.584,0.01,3.84,0
	c0.606-0.005,1.201-0.009,1.782-0.009c1.363,0,2.668,0.034,3.885,0.154v-2.902H39.812V49.343z"/>
<path d="M51.101,50.189c-0.578,0-1.17,0.004-1.774,0.009c-1.262,0.009-2.594,0.009-3.855,0c-0.604-0.005-1.196-0.009-1.774-0.009
	c-1.415,0-2.713,0.028-3.885,0.139c-3.865,0.365-6.29,1.669-6.455,6.156H61.44c-0.165-4.487-2.59-5.79-6.455-6.156
	C53.814,50.217,52.515,50.189,51.101,50.189z"/>
</svg>
